<svg width="272" height="56" viewBox="0 0 272 56" fill="none" xmlns="http://www.w3.org/2000/svg">
<path d="M211.251 41.7001C210.251 42.9001 208.751 43.5001 206.851 43.5001C204.651 43.5001 203.051 42.8001 201.851 41.5001C200.651 40.2001 200.151 38.3001 200.151 36.1001C200.151 33.1001 200.951 30.9001 202.451 29.3001C203.951 27.8001 205.951 27.0001 208.351 27.0001C209.951 27.0001 211.451 27.2001 212.751 27.7001V36.7001C212.751 38.9001 212.251 40.5001 211.251 41.7001ZM226.251 54.0001V0.700073H212.751V16.5001C212.051 16.3001 211.251 16.1001 210.151 15.9001C209.151 15.7001 208.051 15.6001 206.751 15.6001C202.651 15.6001 199.151 16.5001 196.151 18.2001C193.151 20.0001 190.751 22.3001 189.051 25.3001C187.351 28.3001 186.551 31.7001 186.551 35.5001C186.551 38.8001 187.051 41.9001 188.151 44.7001C189.251 47.5001 190.751 49.8001 192.751 51.5001C194.051 52.6001 195.651 53.5001 197.351 54.1001C199.051 54.7001 200.851 55.0001 202.851 55.0001C204.651 55.0001 206.451 54.6001 208.351 53.8001C210.251 53.0001 211.851 51.8001 213.151 50.1001L213.851 53.9001H226.251V54.0001ZM180.851 16.4001H167.351V54.0001H180.851V16.4001ZM181.451 0.700073H166.851V11.3001H181.451V0.700073ZM136.251 41.1001C134.951 39.5001 134.251 37.6001 134.251 35.2001C134.251 32.9001 134.951 30.9001 136.251 29.3001C137.551 27.7001 139.351 26.9001 141.651 26.9001C143.851 26.9001 145.651 27.7001 147.051 29.3001C148.351 30.9001 149.051 32.8001 149.051 35.2001C149.051 37.5001 148.351 39.5001 147.051 41.1001C145.751 42.7001 143.951 43.5001 141.651 43.5001C139.351 43.5001 137.551 42.7001 136.251 41.1001ZM124.051 45.4001C125.751 48.4001 128.051 50.9001 131.151 52.6001C134.151 54.4001 137.651 55.3001 141.651 55.3001C145.651 55.3001 149.151 54.4001 152.151 52.6001C155.151 50.8001 157.551 48.4001 159.151 45.4001C160.851 42.4001 161.651 39.0001 161.651 35.2001C161.651 31.5001 160.851 28.1001 159.151 25.0001C157.451 22.0001 155.151 19.5001 152.151 17.8001C149.151 16.0001 145.651 15.1001 141.651 15.1001C137.751 15.1001 134.251 16.0001 131.151 17.8001C128.151 19.6001 125.751 22.0001 124.051 25.0001C122.351 28.0001 121.551 31.4001 121.551 35.2001C121.551 38.9001 122.351 42.3001 124.051 45.4001ZM105.551 54.0001V37.1001C105.551 30.6001 108.451 27.4001 114.351 27.4001C115.651 27.4001 116.951 27.6001 118.251 27.9001L120.051 16.4001C119.451 16.2001 118.751 16.0001 118.051 15.9001C117.251 15.8001 116.351 15.7001 115.251 15.7001C113.051 15.7001 111.151 16.2001 109.551 17.3001C107.951 18.3001 106.651 19.6001 105.551 21.1001L105.051 16.4001H92.0508V54.0001H105.551ZM70.7508 41.7001C69.7508 42.9001 68.2508 43.5001 66.3508 43.5001C64.1508 43.5001 62.5508 42.8001 61.3508 41.5001C60.2508 40.1001 59.6508 38.3001 59.6508 36.1001C59.6508 33.1001 60.4508 30.9001 61.9508 29.3001C63.4508 27.8001 65.4508 27.0001 67.8508 27.0001C69.4508 27.0001 70.9508 27.2001 72.2508 27.7001V36.7001C72.2508 38.9001 71.7508 40.5001 70.7508 41.7001ZM85.7508 54.0001V0.700073H72.2508V16.5001C71.5508 16.3001 70.7508 16.1001 69.6508 15.9001C68.6508 15.7001 67.5508 15.6001 66.2508 15.6001C62.1508 15.6001 58.6508 16.5001 55.6508 18.2001C52.6508 20.0001 50.2508 22.3001 48.5508 25.3001C46.8508 28.3001 46.0508 31.7001 46.0508 35.5001C46.0508 38.8001 46.5508 41.9001 47.6508 44.7001C48.7508 47.5001 50.2508 49.8001 52.2508 51.5001C53.5508 52.6001 55.1508 53.5001 56.8508 54.1001C58.5508 54.7001 60.3508 55.0001 62.3508 55.0001C64.1508 55.0001 65.9508 54.6001 67.8508 53.8001C69.7508 53.0001 71.3508 51.8001 72.6508 50.1001L73.3508 53.9001H85.7508V54.0001Z" fill="white"/>
<path opacity="0.4" d="M25.7 41.7001C24.7 42.9001 23.2 43.5001 21.3 43.5001C19.1 43.5001 17.5 42.8001 16.3 41.5001C15.2 40.1001 14.6 38.3001 14.6 36.1001C14.6 33.1001 15.4 30.9001 16.9 29.3001C18.4 27.8001 20.4 27.0001 22.8 27.0001C24.4 27.0001 25.9 27.2001 27.2 27.7001V36.7001C27.2 38.9001 26.7 40.5001 25.7 41.7001ZM40.7 54.0001V0.700073H27.2V16.5001C26.5 16.3001 25.7 16.1001 24.6 15.9001C23.6 15.7001 22.5 15.6001 21.2 15.6001C17.1 15.6001 13.6 16.5001 10.6 18.2001C7.6 20.0001 5.2 22.3001 3.5 25.3001C1.8 28.3001 1 31.7001 1 35.5001C1 38.8001 1.5 41.9001 2.6 44.7001C3.7 47.5001 5.2 49.8001 7.2 51.5001C8.5 52.6001 10.1 53.5001 11.8 54.1001C13.5 54.7001 15.3 55.0001 17.3 55.0001C19.1 55.0001 20.9 54.6001 22.8 53.8001C24.7 53.0001 26.3 51.8001 27.6 50.1001L28.3 53.9001H40.7V54.0001Z" fill="white"/>
<path opacity="0.4" d="M255.7 41.7001C254.7 42.9001 253.2 43.5001 251.3 43.5001C249.1 43.5001 247.5 42.8001 246.3 41.5001C245.2 40.1001 244.6 38.3001 244.6 36.1001C244.6 33.1001 245.4 30.9001 246.9 29.3001C248.4 27.8001 250.4 27.0001 252.8 27.0001C254.4 27.0001 255.9 27.2001 257.2 27.7001V36.7001C257.2 38.9001 256.7 40.5001 255.7 41.7001ZM270.7 54.0001V0.700073H257.2V16.5001C256.5 16.3001 255.7 16.1001 254.6 15.9001C253.6 15.7001 252.5 15.6001 251.2 15.6001C247.1 15.6001 243.6 16.5001 240.6 18.2001C237.6 20.0001 235.2 22.3001 233.5 25.3001C231.8 28.3001 231 31.7001 231 35.5001C231 38.8001 231.5 41.9001 232.6 44.7001C233.7 47.5001 235.2 49.8001 237.2 51.5001C238.5 52.6001 240.1 53.5001 241.8 54.1001C243.5 54.7001 245.3 55.0001 247.3 55.0001C249.1 55.0001 250.9 54.6001 252.8 53.8001C254.7 53.0001 256.3 51.8001 257.6 50.1001L258.3 53.9001H270.7V54.0001Z" fill="white"/>
</svg>
