<svg fill="none" height="95" viewBox="0 0 520 95" width="520" xmlns="http://www.w3.org/2000/svg" xmlns:xlink="http://www.w3.org/1999/xlink"><linearGradient id="a" gradientUnits="userSpaceOnUse" x1="303" x2="303" y1="-24" y2="130"><stop offset="0" stop-color="#1f2e83"/><stop offset="1" stop-color="#2041ff"/></linearGradient><path d="m49.4922 91.1875c1.3707 0 2.4881 1.1172 2.4883 2.4902v.3008c-.8412.3207-1.695.6024-2.5616.8467v-1.1475l-42.6064.0713c-.70778 0-1.28106-.5735-1.28125-1.2812.00023-.7077.57349-1.2803 1.28125-1.2803zm0-6.4043c3.9356 0 7.2782 2.5655 8.4492 6.1113-.739.4866-1.4962.9467-2.2725 1.3799-.641-2.8196-3.1654-4.9297-6.1767-4.9297h-7.7588c-.7074-.0002-1.2798-.5729-1.2803-1.2802 0-.7078.5726-1.2811 1.2803-1.2813zm0-6.4111c5.9467 0 11.1103 3.4081 13.6435 8.373-.6445.6187-1.3075 1.2108-1.9892 1.7764-1.9825-4.4659-6.4582-7.5877-11.6514-7.5879h-49.351545v-2.5615h19.456045v.0918h17.2803c.748 0 1.4729-.0315 2.1748-.0918zm-17.0508 6.4111c.7078.0001 1.2803.5734 1.2803 1.2813-.0005.705-.5728 1.2801-1.2803 1.2802h-32.297845v-2.5615zm21.9229-13.1348c6.1328 0 11.5226 3.233 14.5576 8.084-.5181.7926-1.0585 1.5638-1.6231 2.3125-2.4435-4.6532-7.3252-7.8349-12.9345-7.8349h-5.2071c.9037-.7731 1.7332-1.6265 2.4883-2.5616zm18.7402-.0029c-.5377 1.3423-1.126 2.6377-1.7607 3.8887-.4632-.6255-.94-1.2184-1.417-1.753-.3362-.3763-.4187-.9163-.2129-1.3779.206-.4593.6676-.7554 1.1718-.7578zm-60.5059-7.2754c.2368-.6652.9658-1.0154 1.6358-.7812.6652.2391 1.0185.971.7842 1.6386-.8216 2.3153-2.0292 4.4963-3.5538 6.4209h8.1348v2.5616h-11.02343c-.52303-.0001-.99188-.3177-1.18847-.8028-.19648-.4829-.07511-1.0391.29882-1.4013 2.19699-2.1165 3.89408-4.757 4.91208-7.6358zm-3.65329-56.79783c.7079 0 1.28129.57335 1.28129 1.28125l-.003 47.64648c-.0001 6.9764-4.04025 13.1226-10.080045 15.9941v-2.8984c4.549485-2.6439 7.521355-7.5622 7.521485-13.0957v-47.64648c0-.7078.57251-1.28109 1.28027-1.28125zm66.37009 57.34663c-.2239.8628-.4666 1.7174-.7334 2.5625h-20.2939c.4078-.8216.7767-1.6754 1.1045-2.5625zm-59.6416-34.2793c.7079 0 1.2813.5734 1.2813 1.2813v20.2568c.0002 2.918.9886 5.6077 2.6445 7.7578v3.7305c-3.1894-2.8067-5.2058-6.9162-5.206-11.4883v-20.2568c0-.7078.5725-1.2811 1.2802-1.2813zm-10.80466-25.39155c-.87545.98981-1.36621 2.2753-1.36621 3.60547v43.32328c-.00008 3.611-1.25904 6.9332-3.359375 9.5537v-5.1231c.513567-1.3805.794878-2.8733.794922-4.4306v-43.32328c0-1.26222.301383-2.49717.860353-3.60547zm71.69536 53.26465c-.1146.8618-.248 1.7156-.4014 2.5615h-8.4834c-.7076 0-1.2799-.5727-1.2803-1.2803 0-.7078.5724-1.2811 1.2803-1.2812zm-19.4581 0c.7079.0001 1.2803.5734 1.2803 1.2812-.0003.7076-.5726 1.2802-1.2803 1.2803h-.5839c.2105-.843.3937-1.6967.5498-2.5615zm19.9473-6.4092c-.0194.8615-.0573 1.7156-.1123 2.5625h-19.3603c.0722-.8445.1206-1.6986.1445-2.5625zm-.1816-6.4062c.068.8465.1204 1.6996.1533 2.5595h-19.3457c-.0434-.863-.1095-1.7162-.1973-2.5595zm-.8731-6.4063c.1653.8465.3104 1.7005.4375 2.5615h-19.5215c-.0991-.5146-.2063-1.0255-.3232-1.5322-.0782-.3475-.1621-.6906-.25-1.0293zm-1.6611-6.4092c.0148.0476.0312.095.0459.1426.2581.7991.4958 1.6057.7168 2.419h-20.0449c-.373-.8922-.7881-1.7459-1.2452-2.5616zm-2.5313-6.4062c.4077.8336.7933 1.6867 1.1524 2.5615h-10.083c-.7078 0-1.2811-.5735-1.2813-1.2812.0001-.7077.5732-1.2801 1.2832-1.2803zm-25.4961-20.27248c.8897.18985 1.7611.40782 2.6143.6543.0435.75716.0684 1.51923.0684 2.28516v17.90622c-.799-.6566-1.6534-1.2528-2.5645-1.7871v-16.11912c0-.98753-.0414-1.968-.1182-2.93946zm6.5186 2.03321c.4494.18968.8933.38795 1.3311.5957.42.19936.833.40693 1.2412.61817v15.1025c-.0003.7076-.5727 1.2811-1.2803 1.2813-.7078 0-1.281-.5736-1.2813-1.2813v-15.41012c0-.30257-.0044-.60488-.0107-.90625zm-13.042-2.89746c.8825.05225 1.7499.12689 2.6025.22558.1265 1.17828.1944 2.37222.1944 3.57813v14.49702c-.818-.2283-1.672-.4014-2.5615-.5224v-13.97267c0-1.28493-.0808-2.55534-.2354-3.80566zm-3.8916-.09082c.1857 1.2902.2813 2.59411.2813 3.89453v13.76952h-2.5635v-13.76952c0-1.30254-.1042-2.60697-.3096-3.89453zm-6.4902 0c.239 1.26644.3652 2.56887.3652 3.89453v13.76952h-2.5566v-13.76952c0-1.33031-.1434-2.63411-.4151-3.89453zm-6.5684 0c.3413 1.24599.5244 2.55309.5244 3.89453v13.76952h-2.5634v-13.76952c0-1.35409-.2243-2.66573-.6368-3.89453zm-6.833 0c.6057 1.1696.9512 2.49861.9512 3.89453v12.20412c-.0002.7077-.5735 1.2812-1.2813 1.2812-.7076-.0002-1.2801-.5736-1.2802-1.2812v-12.20412c0-1.48712-.5536-2.86338-1.4561-3.89453zm43.2422 6.48535c.8882.6028 1.7431 1.2385 2.5625 1.9102v6.4228h6.0869c.6213.8268 1.2113 1.6803 1.7686 2.5615h-9.1368c-.7077 0-1.281-.5735-1.2812-1.2812z" fill="#203ace"/><g fill="url(#a)"><path d="m501.579 2.24799h18.304v90.75201h-19.328v-59.904l-21.632 30.336h-15.488l-21.888-29.44v59.008h-19.456v-90.75201h18.432l30.72 41.85601z"/><path d="m403.504 46.28c3.584 2.1333 6.315 4.864 8.192 8.192s2.816 7.168 2.816 11.52c0 4.096-.981 7.936-2.944 11.52-1.963 3.4987-4.736 6.6133-8.32 9.344-3.243 2.4747-6.955 4.3947-11.136 5.76-4.096 1.28-8.448 1.9627-13.056 2.048-4.608 0-9.003-.64-13.184-1.92s-7.893-3.2-11.136-5.76c-4.864-3.6693-8.192-8.1067-9.984-13.312l17.92-8.32c0 .8533.299 1.92.896 3.2s1.536 2.5173 2.816 3.712 2.944 2.2187 4.992 3.072 4.565 1.28 7.552 1.28c2.389 0 4.48-.2987 6.272-.896 1.877-.5973 3.413-1.3227 4.608-2.176 1.28-.9387 2.219-1.9627 2.816-3.072.683-1.1947 1.024-2.3893 1.024-3.584 0-1.3653-.469-2.6453-1.408-3.84-.853-1.1947-2.219-2.1333-4.096-2.816-3.413-1.1947-7.04-2.176-10.88-2.944-3.755-.8533-7.424-1.8773-11.008-3.072-3.584-1.28-6.912-2.944-9.984-4.992s-5.504-4.9067-7.296-8.576c-1.621-3.2427-2.432-6.6987-2.432-10.368 0-4.096.939-8.064 2.816-11.904 1.963-3.84 4.608-7.0827 7.936-9.72801 3.157-2.47467 6.699-4.352 10.624-5.632 3.925-1.36533 8.064-2.048003 12.416-2.048003s8.491.640003 12.416 1.920003c4.011 1.28 7.595 3.15733 10.752 5.632 3.072 2.30401 5.504 4.99201 7.296 8.06401l-14.592 9.984c-1.792-2.4747-4.053-4.4373-6.784-5.888-2.645-1.536-5.632-2.304-8.96-2.304-4.608 0-8.192 1.024-10.752 3.072-2.475 2.048-3.712 4.736-3.712 8.064 0 1.536.683 2.9013 2.048 4.096 1.451 1.1947 3.285 2.2613 5.504 3.2 2.304.9387 4.864 1.792 7.68 2.56 2.816.6827 5.589 1.408 8.32 2.176 2.816.6827 5.461 1.408 7.936 2.176s4.48 1.6213 6.016 2.56z"/><path d="m336.485 2.24799v16.38401h-6.784v58.112h6.784v16.256h-33.024v-16.256h6.784v-58.112h-6.784v-16.38401z"/><path d="m261.477 75.464h37.248v17.536h-56.704v-90.75201h19.456z"/><path d="m170.009 2.24799h65.664v17.66401h-23.168v73.088h-19.328v-73.088h-23.168z"/><path d="m130.944 41.672h34.304v33.28c-5.12 6.4853-10.795 11.392-17.024 14.72s-12.757 4.992-19.584 4.992c-6.144 0-11.947-1.2373-17.408-3.712-5.461-2.56-10.197-5.9733-14.208-10.24-4.0107-4.2667-7.2107-9.216-9.6-14.848-2.304-5.7173-3.456-11.776-3.456-18.176s1.152-12.416 3.456-18.048c2.3893-5.632 5.5893-10.5813 9.6-14.848 4.011-4.2667 8.747-7.63734 14.208-10.11201s11.264-3.712003 17.408-3.712003c5.803 0 11.264 1.066673 16.384 3.200003 5.205 2.13333 10.24 5.67467 15.104 10.62401l-11.264 13.696c-3.584-3.328-6.955-5.5467-10.112-6.656-3.157-1.1947-6.485-1.792-9.984-1.792-3.584 0-6.955.7253-10.112 2.176-3.072 1.4507-5.76 3.4133-8.064 5.888s-4.139 5.4187-5.504 8.832c-1.28 3.328-1.92 6.912-1.92 10.752s.64 7.424 1.92 10.752c1.365 3.328 3.2 6.272 5.504 8.832 2.304 2.4747 4.992 4.4373 8.064 5.888 3.157 1.4507 6.528 2.176 10.112 2.176 3.157 0 6.272-.5547 9.344-1.664 3.157-1.1947 6.315-3.1147 9.472-5.76v-9.856h-16.64z"/></g></svg>